<svg id="Layer_1" data-name="Layer 1" xmlns="http://www.w3.org/2000/svg" xmlns:xlink="http://www.w3.org/1999/xlink" viewBox="0 0 313.62 108.55"><defs><style>.cls-1,.cls-6{fill:#fff;}.cls-2{fill:none;}.cls-3{fill:url(#linear-gradient);}.cls-4{fill:url(#linear-gradient-2);}.cls-5{fill:url(#linear-gradient-3);}.cls-6{stroke:#231f20;stroke-miterlimit:10;}.cls-7{fill:url(#linear-gradient-4);}.cls-8{fill:url(#linear-gradient-5);}.cls-9{fill:url(#linear-gradient-6);}.cls-10{fill:url(#linear-gradient-7);}.cls-11{fill:url(#linear-gradient-8);}.cls-12{fill:url(#linear-gradient-9);}.cls-13{fill:url(#linear-gradient-10);}.cls-14{fill:url(#linear-gradient-11);}.cls-15{fill:url(#linear-gradient-12);}.cls-16{fill:url(#linear-gradient-13);}.cls-17{fill:url(#linear-gradient-14);}.cls-18{fill:url(#linear-gradient-15);}.cls-19{fill:url(#linear-gradient-16);}.cls-20{fill:url(#linear-gradient-17);}.cls-21{fill:url(#linear-gradient-18);}.cls-22{fill:url(#linear-gradient-19);}.cls-23{fill:url(#linear-gradient-20);}.cls-24{fill:url(#linear-gradient-21);}.cls-25{fill:url(#linear-gradient-22);}.cls-26{fill:url(#linear-gradient-23);}.cls-27{fill:#231f20;}</style><linearGradient id="linear-gradient" x1="186.91" y1="64.09" x2="186.91" y2="141.6" gradientUnits="userSpaceOnUse"><stop offset="0.05" stop-color="#4cb748"/><stop offset="0.55" stop-color="#41b449"/><stop offset="0.83" stop-color="#38b149"/><stop offset="0.86" stop-color="#2fa246"/><stop offset="0.93" stop-color="#167c3e"/><stop offset="0.98" stop-color="#005a37"/><stop offset="1" stop-color="#005435"/></linearGradient><linearGradient id="linear-gradient-2" x1="130.8" y1="78.14" x2="130.8" y2="142.26" gradientUnits="userSpaceOnUse"><stop offset="0.05" stop-color="#4cb748"/><stop offset="0.09" stop-color="#41b449"/><stop offset="0.11" stop-color="#38b149"/><stop offset="0.18" stop-color="#2ea246"/><stop offset="0.31" stop-color="#157c3e"/><stop offset="0.41" stop-color="#005d38"/><stop offset="0.62" stop-color="#005a37"/><stop offset="1" stop-color="#005435"/></linearGradient><linearGradient id="linear-gradient-3" x1="162.71" y1="49.49" x2="162.71" y2="142.47" gradientUnits="userSpaceOnUse"><stop offset="0.05" stop-color="#4cb748"/><stop offset="0.11" stop-color="#41b449"/><stop offset="0.14" stop-color="#38b149"/><stop offset="0.19" stop-color="#2ea246"/><stop offset="0.28" stop-color="#157c3e"/><stop offset="0.34" stop-color="#005d38"/><stop offset="0.98" stop-color="#005a37"/><stop offset="1" stop-color="#005435"/></linearGradient><linearGradient id="linear-gradient-4" x1="102.02" y1="93.58" x2="102.02" y2="141.43" gradientUnits="userSpaceOnUse"><stop offset="0.65" stop-color="#39b54a"/><stop offset="0.73" stop-color="#31aa47"/><stop offset="0.87" stop-color="#1a8c40"/><stop offset="1" stop-color="#006838"/></linearGradient><linearGradient id="linear-gradient-5" x1="142.05" y1="50.38" x2="142.05" y2="136.09" gradientUnits="userSpaceOnUse"><stop offset="0.07" stop-color="#4cb748"/><stop offset="0.32" stop-color="#49b648"/><stop offset="0.53" stop-color="#3eb349"/><stop offset="0.61" stop-color="#38b149"/><stop offset="0.69" stop-color="#2fa246"/><stop offset="0.85" stop-color="#167c3e"/><stop offset="0.98" stop-color="#005a37"/><stop offset="1" stop-color="#005d38"/><stop offset="1" stop-color="#005435"/></linearGradient><linearGradient id="linear-gradient-6" x1="174.73" y1="78.97" x2="174.73" y2="141.43" gradientUnits="userSpaceOnUse"><stop offset="0.05" stop-color="#4cb748"/><stop offset="0.24" stop-color="#41b449"/><stop offset="0.34" stop-color="#38b149"/><stop offset="0.43" stop-color="#2ea246"/><stop offset="0.62" stop-color="#157c3e"/><stop offset="0.74" stop-color="#005d38"/><stop offset="0.98" stop-color="#005a37"/><stop offset="1" stop-color="#005435"/></linearGradient><linearGradient id="linear-gradient-7" x1="209.69" y1="112.82" x2="209.69" y2="140.93" gradientUnits="userSpaceOnUse"><stop offset="0.05" stop-color="#4cb748"/><stop offset="0.35" stop-color="#41b449"/><stop offset="0.52" stop-color="#38b149"/><stop offset="0.6" stop-color="#2ea246"/><stop offset="0.75" stop-color="#157c3e"/><stop offset="0.87" stop-color="#005d38"/><stop offset="0.98" stop-color="#005a37"/><stop offset="1" stop-color="#005435"/></linearGradient><linearGradient id="linear-gradient-8" x1="122.85" y1="82.53" x2="122.85" y2="141.6" gradientUnits="userSpaceOnUse"><stop offset="0.17" stop-color="#39b54a"/><stop offset="0.29" stop-color="#31aa47"/><stop offset="0.52" stop-color="#1a8c40"/><stop offset="0.74" stop-color="#006838"/></linearGradient><linearGradient id="linear-gradient-9" x1="104.05" y1="64.09" x2="104.05" y2="141.6" xlink:href="#linear-gradient"/><linearGradient id="linear-gradient-10" x1="57.51" y1="78.14" x2="57.51" y2="142.26" xlink:href="#linear-gradient-2"/><linearGradient id="linear-gradient-11" x1="75.83" y1="49.49" x2="75.83" y2="142.47" xlink:href="#linear-gradient-3"/><linearGradient id="linear-gradient-12" x1="40.36" y1="98.08" x2="40.36" y2="145.93" xlink:href="#linear-gradient-4"/><linearGradient id="linear-gradient-13" x1="74.08" y1="50.38" x2="74.08" y2="136.09" xlink:href="#linear-gradient-5"/><linearGradient id="linear-gradient-14" x1="88.35" y1="78.97" x2="88.35" y2="141.43" xlink:href="#linear-gradient-6"/><linearGradient id="linear-gradient-15" x1="117.31" y1="112.82" x2="117.31" y2="140.93" xlink:href="#linear-gradient-7"/><linearGradient id="linear-gradient-16" x1="49.01" y1="82.53" x2="49.01" y2="141.6" xlink:href="#linear-gradient-8"/><linearGradient id="linear-gradient-17" x1="269.4" y1="63.05" x2="269.4" y2="140.55" xlink:href="#linear-gradient"/><linearGradient id="linear-gradient-18" x1="222.54" y1="77.09" x2="222.54" y2="141.22" xlink:href="#linear-gradient-2"/><linearGradient id="linear-gradient-19" x1="240.9" y1="48.45" x2="240.9" y2="141.43" xlink:href="#linear-gradient-3"/><linearGradient id="linear-gradient-20" x1="192.36" y1="92.53" x2="192.36" y2="140.38" xlink:href="#linear-gradient-4"/><linearGradient id="linear-gradient-21" x1="239.13" y1="49.33" x2="239.13" y2="135.04" xlink:href="#linear-gradient-5"/><linearGradient id="linear-gradient-22" x1="253.5" y1="77.93" x2="253.5" y2="140.38" xlink:href="#linear-gradient-6"/><linearGradient id="linear-gradient-23" x1="214.07" y1="81.48" x2="214.07" y2="140.55" xlink:href="#linear-gradient-8"/></defs><path class="cls-1" d="M292.05,90.26c-6,23.84-30,45.89-59.54,45.88-29.18,0-53.55-21.57-59.54-45.88-1-4.25-5.84-26.09,6.86-40.06,9.85-10.83,24.35-10.46,53.17-9.73,29,.74,44.79,1.14,54.21,13.2C297.85,67.3,293,86.37,292.05,90.26Z" transform="translate(-0.12 -33.84)"/><path class="cls-1" d="M137.87,90.77c-6,23.83-30,45.88-59.54,45.88-29.18,0-53.56-21.57-59.54-45.88-1.05-4.25-5.84-26.1,6.86-40.06C35.5,39.87,50,40.24,78.81,41c29,.73,44.8,1.14,54.22,13.2C143.66,67.8,138.85,86.88,137.87,90.77Z" transform="translate(-0.12 -33.84)"/><path class="cls-2" d="M.12,62.72v0Z" transform="translate(-0.12 -33.84)"/><path class="cls-2" d="M5.26,66.5" transform="translate(-0.12 -33.84)"/><polyline class="cls-2" points="0 28.89 5.14 32.66 6.93 34.51 2.9 23.41"/><path class="cls-2" d="M12.54,65.06" transform="translate(-0.12 -33.84)"/><path class="cls-2" d="M-23,93.23" transform="translate(-0.12 -33.84)"/><path class="cls-3" d="M186.49,119.73a5.07,5.07,0,0,1,1.17,1.62,32.63,32.63,0,0,1,4.92,2.94,25.5,25.5,0,0,0,.75-2.49,76.91,76.91,0,0,0,1.13-10.24c.15-2.72,0-8.16,0-10.88,0-2.24.17-6.74,0-9a90.89,90.89,0,0,0-2-11.26,52.18,52.18,0,0,0-3.68-9.62,82.63,82.63,0,0,0-5.09-6.72s.91,5,1.13,6.72a62.11,62.11,0,0,1,.57,9.62c-.16,2.3-1.37,6.84-1.7,9.13s-.67,6.91-1.13,9.19c-.53,2.59-2.2,7.71-2.83,10.3-.14.58-.3,1.31-.48,2.11A44.24,44.24,0,0,0,186.49,119.73Z" transform="translate(-0.12 -33.84)"/><path class="cls-4" d="M135.6,106.62a10.88,10.88,0,0,1,3.81-3.73,43.15,43.15,0,0,1,1-6.27l-.22-.42-3.1-4-4.56-4.85-6.83-6.38-4.55-2.8,3.11,5.35,1.44,7.5,1.87,6.58,2.69,12.91.5,3.8c1.38-1.6,2.8-3.18,4.19-4.77A5,5,0,0,1,135.6,106.62Z" transform="translate(-0.12 -33.84)"/><path class="cls-5" d="M162.89,70a20,20,0,0,0,1.48,1.54c.17-2.93.44-6.4.67-8.45.38-3.4,1.94-13.59,1.94-13.59s-3.68,6.88-4.77,9.2c-1,2.16-2.66,6.23-3.77,8.91A4.28,4.28,0,0,1,162.89,70Z" transform="translate(-0.12 -33.84)"/><path class="cls-6" d="M167.4,56.52" transform="translate(-0.12 -33.84)"/><path class="cls-7" d="M122.29,127c-2.17-3.81-4.31-7.43-5.76-9.48a56.38,56.38,0,0,0-5.52-6.13,90.52,90.52,0,0,0-10.41-7.93c-4.38-2.78-18.85-9.86-18.85-9.86s4.74,4.08,6.17,5.53a126,126,0,0,1,10.73,13,75.83,75.83,0,0,1,6.83,13.47,73.19,73.19,0,0,1,2,8.82,49.61,49.61,0,0,0,14.72-7.26Z" transform="translate(-0.12 -33.84)"/><path class="cls-8" d="M137.11,71.6c.07,2,0,5.86,0,7.81,0,2.56,0,7.69,0,10.25,0,2.41.13,7.24,0,9.64-.08,1.38-.63,5.51-.63,5.51v.56a12,12,0,0,1,2.93-2.48,54.75,54.75,0,0,1,3-13.11,53.09,53.09,0,0,1,2.84-6.57s0-.08,0-.12c.07-3,.52-6.38,2.4-8.77-2.09-3.21-5.19-7.62-6.67-10.14-1.28-2.19-4.52-9-4.52-9s-.12,5.85,0,7.8C136.78,67.6,137,69.46,137.11,71.6Z" transform="translate(-0.12 -33.84)"/><path class="cls-9" d="M179.39,104.27a103.43,103.43,0,0,0-2.83-11.08c-.63-1.75-2.33-5.17-3.11-6.9S170.34,79,170.34,79s-.71,5.19-1.13,6.9c-.06.26-.15.55-.25.86l0,0a57.75,57.75,0,0,1,3.57,12.93c1.35,2.46,3,4.81,4.24,7.18a53.41,53.41,0,0,0,3.7,6.06C180.3,110.58,179.81,106.41,179.39,104.27Z" transform="translate(-0.12 -33.84)"/><path class="cls-10" d="M215.28,114.86a90.84,90.84,0,0,0-8.9,2.09,64.22,64.22,0,0,0-11.59,5.65c-.62.43-1.36,1.05-2.15,1.73,1.42,1,2.81,2,4.23,2.86,2.78,1.68,5.42,3.7,8.23,5.4a34,34,0,0,1,2.13-3.09c1.2-1.55,3.69-4.61,5.08-6.07a62.45,62.45,0,0,1,5.94-5.64c1.92-1.41,8.48-5,8.48-5S218.12,114.28,215.28,114.86Z" transform="translate(-0.12 -33.84)"/><path class="cls-11" d="M135.11,107.84a35.35,35.35,0,0,0-1.77-3.51,73.5,73.5,0,0,0-7.15-9.13A101.74,101.74,0,0,0,118.38,88c-1.83-1.44-7.8-5.45-7.8-5.45s1.77,4.62,2.28,6.17c1,3.17,2.92,9.53,3.57,12.75s1.39,9.73,1.79,13,1.33,6.74,1.79,13.46c0,.24,0,.47,0,.71.74-.47,1.47-1,2.2-1.48,2.75-6.7,7.92-12.11,12.74-17.61A5,5,0,0,1,135.11,107.84Z" transform="translate(-0.12 -33.84)"/><path class="cls-12" d="M95.25,136.16A44.66,44.66,0,0,0,111.51,133c.2-.8.39-1.51.55-2,.7-2.31,2.56-6.86,3.11-9.2a80.37,80.37,0,0,0,1.13-10.24c.14-2.72,0-8.16,0-10.88,0-2.24.17-6.74,0-9a90.92,90.92,0,0,0-2-11.26,51.47,51.47,0,0,0-3.68-9.62,80.34,80.34,0,0,0-5.09-6.72s.91,5,1.14,6.72a63.37,63.37,0,0,1,.56,9.62c-.16,2.3-1.37,6.84-1.7,9.13s-.66,6.91-1.13,9.19c-.52,2.59-2.19,7.71-2.82,10.3s-1.57,7.39-2.26,9.82c-.85,3-3,8.82-4.24,11.71a74.06,74.06,0,0,1-3.39,6.6l.49,0A4.81,4.81,0,0,1,95.25,136.16Z" transform="translate(-0.12 -33.84)"/><path class="cls-13" d="M47.56,91l1.86,6.58,2.69,12.91,1.45,11v12.73a74.75,74.75,0,0,0,9.93,2.21,78.47,78.47,0,0,0,8.52.69c-.41-4.82-1.1-12.14-1.69-15.32-.65-3.52-3.73-13.93-3.73-13.93l-2.06-6.89L62,96.2l-3.1-4-4.55-4.85-6.83-6.38L43,78.14l3.11,5.35Z" transform="translate(-0.12 -33.84)"/><path class="cls-14" d="M63.49,136.39c8.76,1.26,17.69.54,26.53.74,0-.68,0-1.29,0-1.7-.15-2.62-.81-7.85-1.16-10.46-.48-3.53-1.61-10.59-1.95-14.13-.26-2.8-.48-8.42-.57-11.22s-.25-8.43-.28-11.24c0-3.34-.12-10,0-13.38.11-3,.51-8.94.85-11.92.38-3.4,1.95-13.59,1.95-13.59s-3.68,6.88-4.78,9.2c-1.16,2.49-3.18,7.53-4.24,10-1.12,2.68-3.44,8-4.64,10.69s-3.92,8.09-5,10.85a153.32,153.32,0,0,0-5.65,18.6c-.89,4.47-1.75,13.48-2.14,18-.17,2-.48,5.83-.75,9.24C62.26,136.2,62.88,136.3,63.49,136.39Z" transform="translate(-0.12 -33.84)"/><path class="cls-6" d="M89.24,56.52" transform="translate(-0.12 -33.84)"/><path class="cls-15" d="M42.52,130.06a.11.11,0,0,0,0,.05c2.24.83,4.37,2,6.74,2.76a91.39,91.39,0,0,0,12.65,3.27C59,130.87,55.6,124.88,53.57,122A55.46,55.46,0,0,0,48,115.87a90.66,90.66,0,0,0-10.4-7.93c-4.38-2.78-18.85-9.86-18.85-9.86l16.9,18.51A76.5,76.5,0,0,1,42.52,130.06Z" transform="translate(-0.12 -33.84)"/><path class="cls-16" d="M57.7,131.44v3.83c1.92.45,3.86.84,5.79,1.12,8.91,1.28,18,.51,27,.75,0-.78,0-1.5-.08-1.95-.23-2-1.42-5.85-1.86-7.8-.4-1.79-.86-5.4-1.24-7.2-.62-2.89-2.17-8.63-3.11-11.47-1.21-3.7-4-11-5.38-14.7-.8-2.1-2.27-6.34-3.2-8.41-1.07-2.38-3.5-7-4.87-9.34-1.83-3.07-6.09-9-7.89-12.09-1.29-2.19-4.52-9-4.52-9s-.13,5.85,0,7.8c.3,4.57.53,6.43.62,8.57.08,2,0,5.86,0,7.81,0,2.56,0,7.69,0,10.25,0,2.41.13,7.24,0,9.64-.08,1.38-.62,5.51-.62,5.51v7.5s.72,7.69.62,10.26C58.85,124.8,57.7,131.44,57.7,131.44Z" transform="translate(-0.12 -33.84)"/><path class="cls-17" d="M95.25,136.16a47.72,47.72,0,0,0,5.81-.41c.56-3.52,1.15-8.31,1.29-11,.15-2.86.21-8.59,0-11.45-.16-2.26-.68-6.79-1.13-9a98.89,98.89,0,0,0-2.83-11.08c-.63-1.75-2.32-5.17-3.1-6.9S92.18,79,92.18,79s-.72,5.19-1.14,6.9-2,5.3-2.29,7.11c-.27,1.56-2,10.17-2.51,11.5-.73,1.83-1.19,5.66-1.7,7.53-.36,1.33-1.48,3.92-2,5.23-.84,2.23-2.28,6.75-3.11,9-.58,1.58-1.76,4.74-2.54,6.27-.51,1-1.62,2.87-2.7,4.63,6,.09,12-.18,18,.07A4.86,4.86,0,0,1,95.25,136.16Z" transform="translate(-0.12 -33.84)"/><path class="cls-18" d="M128.67,116.8l-.46.15a64.22,64.22,0,0,0-11.59,5.65,46.51,46.51,0,0,0-7.07,6.69c-1,1.29-2.38,3.53-3.59,5.51a48.77,48.77,0,0,0,16.27-7.69A41.82,41.82,0,0,1,128.67,116.8Z" transform="translate(-0.12 -33.84)"/><path class="cls-19" d="M38.27,101.45c.65,3.22,1.38,9.73,1.78,13s1.33,6.74,1.79,13.46a16.78,16.78,0,0,1,0,2c2.5.83,4.8,2.13,7.41,3a85,85,0,0,0,14.21,3.52c.7.1,1.4.18,2.1.26,0-1.45,0-3.14,0-6.11a36.11,36.11,0,0,0-1.95-8.9c-.81-2.16-3.15-6.31-4.22-8.41s-2.91-6.75-4.23-8.9A73.5,73.5,0,0,0,48,95.2,103.47,103.47,0,0,0,40.22,88c-1.84-1.44-7.81-5.45-7.81-5.45s1.78,4.62,2.28,6.17C35.72,91.87,37.62,98.23,38.27,101.45Z" transform="translate(-0.12 -33.84)"/><path class="cls-20" d="M272.4,127.59c2.33-1.66,4.74-3.19,7.18-4.67.27-.82.5-1.57.64-2.16a78.75,78.75,0,0,0,1.13-10.25c.14-2.72,0-8.15,0-10.87,0-2.25.17-6.75,0-9a88.78,88.78,0,0,0-2-11.26,51.52,51.52,0,0,0-3.67-9.63,83.87,83.87,0,0,0-5.09-6.71s.9,5,1.13,6.71a63.42,63.42,0,0,1,.56,9.63c-.16,2.3-1.37,6.84-1.69,9.13s-.67,6.9-1.13,9.18c-.53,2.6-2.2,7.72-2.83,10.3s-1.57,7.39-2.26,9.83c-.85,3-3,8.82-4.24,11.71-.59,1.38-1.69,3.55-2.79,5.54h4C265.38,134,269.09,130,272.4,127.59Z" transform="translate(-0.12 -33.84)"/><path class="cls-21" d="M212.61,90l1.86,6.58,2.69,12.9,1.45,11v13.46c6.15.5,12.26,1.24,18.41,1.72-.41-4.81-1.08-11.79-1.65-14.87-.65-3.52-3.72-13.93-3.72-13.93l-2.07-6.88-2.49-4.75-3.1-4-4.55-4.85-6.83-6.37-4.55-2.81,3.1,5.36Z" transform="translate(-0.12 -33.84)"/><path class="cls-22" d="M243.71,136.14a4.72,4.72,0,0,1,3.11-1.06h8.24c0-.26,0-.51,0-.7-.14-2.62-.81-7.84-1.16-10.45-.47-3.54-1.61-10.59-2-14.14-.26-2.8-.48-8.41-.56-11.22s-.25-8.42-.29-11.23c0-3.35-.12-10,0-13.38.12-3,.52-8.95.85-11.92.39-3.41,2-13.59,2-13.59s-3.68,6.87-4.77,9.2c-1.17,2.48-3.19,7.52-4.24,10-1.13,2.68-3.45,8-4.64,10.69s-3.92,8.09-5,10.85a153.46,153.46,0,0,0-5.65,18.61c-.88,4.46-1.75,13.48-2.14,18-.16,1.86-.45,5.51-.71,8.81,5.21.53,10.41,1.07,15.68,1.31A5.7,5.7,0,0,1,243.71,136.14Z" transform="translate(-0.12 -33.84)"/><path class="cls-6" d="M254.29,55.47" transform="translate(-0.12 -33.84)"/><path class="cls-23" d="M203.42,116.46a54.57,54.57,0,0,0-5.53-6.13,90.73,90.73,0,0,0-10.4-7.94c-3.2-2-11.73-6.32-16.13-8.51.12.44.23.89.34,1.34,1.22,1.07,2.48,2.21,3.11,2.84a127.4,127.4,0,0,1,10.73,13,76.52,76.52,0,0,1,6.64,13c1.58,1.08,3.12,2.21,4.69,3.17,3.22,1.95,6.26,4.35,9.58,6.19a6.13,6.13,0,0,1,.87-.07c2,0,4,.08,6.05.19C210.22,127.72,205.84,119.89,203.42,116.46Z" transform="translate(-0.12 -33.84)"/><path class="cls-24" d="M243.7,136.15a4.74,4.74,0,0,1,3.12-1.07h8.68c0-.37,0-.69-.06-.93-.23-2-1.42-5.85-1.86-7.81-.4-1.79-.86-5.4-1.24-7.19-.61-2.89-2.17-8.63-3.1-11.48-1.22-3.7-4-11-5.38-14.69-.8-2.11-2.27-6.34-3.21-8.42-1.07-2.37-3.5-7-4.86-9.33-1.84-3.07-6.1-9-7.9-12.1-1.29-2.19-4.52-9-4.52-9s-.13,5.86,0,7.81c.3,4.57.53,6.42.62,8.57.08,2,0,5.85,0,7.8,0,2.57,0,7.69,0,10.26,0,2.41.14,7.23,0,9.64-.08,1.38-.62,5.51-.62,5.51v7.5s.72,7.69.62,10.25c-.09,2.23-1.24,8.88-1.24,8.88v3.82c6.54.64,13.06,1.41,19.67,1.71A5.61,5.61,0,0,1,243.7,136.15Z" transform="translate(-0.12 -33.84)"/><path class="cls-25" d="M266.47,132.32c.43-3.07.82-6.49.93-8.6.16-2.86.21-8.59,0-11.45-.16-2.27-.68-6.8-1.13-9a100.48,100.48,0,0,0-2.82-11.08c-.64-1.76-2.33-5.18-3.11-6.9s-3.11-7.32-3.11-7.32-.72,5.19-1.13,6.9-2,5.3-2.3,7.11c-.26,1.55-2,10.17-2.51,11.5-.72,1.83-1.18,5.65-1.69,7.52-.37,1.33-1.49,3.92-2,5.23-.85,2.23-2.29,6.75-3.11,9-.59,1.58-1.77,4.74-2.55,6.27-.48,1-1.48,2.64-2.49,4.3,1,.07,2,.14,2.95.18a5.61,5.61,0,0,1,1.28.22,4.74,4.74,0,0,1,3.12-1.07h14.56A16.21,16.21,0,0,0,266.47,132.32Z" transform="translate(-0.12 -33.84)"/><path class="cls-26" d="M205.11,113.38c.42,3.37,1.33,6.75,1.78,13.47a21.25,21.25,0,0,1-.59,6.45l.15.08a6.13,6.13,0,0,1,.87-.07c7.87,0,15.59.93,23.33,1.7,0-1.33,0-2.95,0-5.52a37,37,0,0,0-1.95-8.89c-.82-2.16-3.16-6.32-4.23-8.42s-2.91-6.75-4.23-8.89a72.86,72.86,0,0,0-7.15-9.14,99.65,99.65,0,0,0-7.8-7.21c-1.84-1.45-7.8-5.46-7.8-5.46s1.77,4.62,2.27,6.18c1,3.16,2.93,9.52,3.58,12.74S204.7,110.14,205.11,113.38Z" transform="translate(-0.12 -33.84)"/><polygon class="cls-27" points="121.61 93.64 122.27 94.44 119.31 96.89 114.34 100.32 107.14 104.27 87.25 107.7 81.42 108.55 75.75 108.55 69.42 107.87 63.58 107.01 57.74 105.64 51.74 104.1 47.12 102.9 41.63 100.49 38.02 98.26 33.73 95.86 31.95 94.45 50.84 94.28 50.84 94.28 53.8 95.71 60.59 98.42 70.09 101.41 81.5 102.5 90.2 102.5 97.81 100.6 103.52 97.88 110.03 94.62 111.11 93.74 121.61 93.64"/><path class="cls-27" d="M263.27,126.21l4.47-3.73,6-4.07,4.35-4.35,3.8-5.43,3.26-7.61,1.63-4.89,2.18-7.94V62.71l-1.63-4.08-3-5.16-5.44-3.26-4.35-2.72-7.06-2.6L261,43.69H254.7l-8.15-1.36H228.07L221,43.69l-8.15,1.2h-6.52L199.54,47l-4.62,1.36-5.16,1.9L187,51.57,183.51,54l-4.07,3.54-3.54,5.16-1.08,5.43V82.27l1.9,5.92,3,7.39,3.26,9.24,3.53,5.71,5.16,6.52,5.44,6,7,3.71h0l1.18.63,9.78,4.89,9.51,1.64h16.57l8.16-2.18,7.6-2.17,6-3Zm-231.2,2.08-2.33-1.84L27,122.84l-2.4-3.94-2.4-4-2.06-3.77-1.88-4.11L16.88,103,15.5,99.18l-1.2-4-.85-4.46-.86-5-2-7.25A15.38,15.38,0,0,0,7.17,68.27a15.08,15.08,0,0,0-7-4.72C.22,61.6.3,59.6.24,44.81l14.27-6.16h14.8l19.59-3H79.3l9.09,1.29,10.29.86L110,39.67l10.8,1.71L128,42.92l11.83,1.55,8.4.68,11-.34L169.85,44l8.58-1.2,10.8-2.57,11-2.06,9.95-2.49,7.37-.77,9.09-1h24l9.26,1.37,9.09.68,12,1,9.44.69,11.32,1.2L310,41.72l2.74,2.06,1,2.75V62.48l-3.6,2.91-4.63,3.09-2.06,5.66-1,4.46-1.71,6-1,4.8-1.55,5.32-1.54,5.14-2.06,4.29-2.4,5.32-2.57,5.31-2.92,4.46-4.8,5.83-6.17,4.46-8.41,4.63-11.66,4L247,140.17l-14.58.68-9.6-1.2-8.92-.51-8.06-1.89-5.83-3.6-5.49-3.6-5-4.29-4-3.77-4.29-4.81-4.28-5.83-2.75-6.17-1.37-4.63L171.4,97,170,93l-1.2-4.46-1.37-5.83-1.37-3.13-1-3.73-1.88-2.23-3.26-3.08-3.63-.86-3.4.34-3.09,2.23-2.57,3.6L146,80.48l-1.54,4.81-.86,4.45-.85,4.46-1.38,5.49-2.91,5.49-2.4,5.83-3.78,5.66L129,121l-4.46,5.49-2.2,1.83-.66-.8-10.49.1,6.53-5.37,5.43-6,4.62-7.33,3-8.15,3.53-9.24,2.18-7.34V77.92l1.36-6.52-1.09-6.34-2.72-4.53-4.35-4.62-7.06-3.8-7.88-3.26L105,47H96l-7.88-2.06H46.84l-5.7,1.24-6.8,3L30,51.84l-4.35,5.41L23.2,62.73V86.35l1.91,6.88,3,8.6,3.26,7.34,3.53,6.25,4.89,6.25,5.7,3.8L51,128.12Z" transform="translate(-0.12 -33.84)"/><path class="cls-1" d="M128.16,87.89" transform="translate(-0.12 -33.84)"/></svg>